<svg width="100" height="100" viewBox="0 0 100 100" fill="none" xmlns="http://www.w3.org/2000/svg">
<circle cx="50" cy="50" r="50" fill="#020314"/>
<path d="M23.8359 66.802V33.818H31.3379L31.5859 40.08H31.9579C33.6939 35.554 37.8479 33.198 42.4359 33.198C47.2099 33.198 51.3019 35.306 53.0379 40.762H53.5339C55.2079 35.74 59.6719 33.198 64.7559 33.198C71.2039 33.198 76.1639 37.042 76.1639 47.024V66.802H68.4139V48.698C68.4139 42.498 66.3679 39.584 61.7799 39.584C56.8199 39.584 53.9059 43.676 53.9059 48.636V66.802H46.0939V48.698C46.0939 42.498 44.0479 39.584 39.5219 39.584C34.4999 39.584 31.5859 43.676 31.5859 48.636V66.802H23.8359Z" fill="white"/>
</svg>
