<svg width="131" height="38" viewBox="0 0 131 38" fill="none" xmlns="http://www.w3.org/2000/svg">
<path d="M117.155 37.5732C115.689 37.5732 114.372 37.0732 113.205 36.0732C112.072 35.0399 111.189 33.6232 110.555 31.8232C109.922 29.9899 109.605 27.8732 109.605 25.4732C109.605 22.6732 110.039 20.2232 110.905 18.1232C111.772 15.9899 112.972 14.3232 114.505 13.1232C116.039 11.9232 117.772 11.3232 119.705 11.3232C120.172 11.3232 120.639 11.3732 121.105 11.4732C121.572 11.5399 122.022 11.6732 122.455 11.8732C122.989 12.1399 123.255 12.0232 123.255 11.5232V5.12323C123.255 4.52323 123.155 4.10656 122.955 3.87323C122.789 3.63989 122.472 3.50656 122.005 3.47323L120.705 3.32323C120.339 3.25656 120.155 3.05656 120.155 2.72323C120.155 2.3899 120.339 2.1899 120.705 2.12323C121.772 1.92323 122.622 1.68989 123.255 1.42323C123.922 1.15656 124.472 0.889894 124.905 0.623229C125.439 0.289896 125.839 0.12323 126.105 0.12323C126.472 0.12323 126.655 0.389896 126.655 0.923228V32.3732C126.655 33.7732 127.005 34.4732 127.705 34.4732C128.139 34.4732 128.539 34.1899 128.905 33.6232C129.272 33.0232 129.455 32.0232 129.455 30.6232C129.455 30.0899 129.672 29.8232 130.105 29.8232C130.505 29.8232 130.705 30.1066 130.705 30.6732C130.705 33.1066 130.289 34.8732 129.455 35.9732C128.622 37.0399 127.672 37.5732 126.605 37.5732C125.639 37.5732 124.905 37.2566 124.405 36.6232C123.905 35.9566 123.572 35.1732 123.405 34.2732C123.372 34.0066 123.255 33.8732 123.055 33.8732C122.855 33.8399 122.672 33.9566 122.505 34.2232C121.572 35.5232 120.722 36.4066 119.955 36.8732C119.189 37.3399 118.255 37.5732 117.155 37.5732ZM118.255 35.2732C119.122 35.2732 119.922 34.9899 120.655 34.4232C121.422 33.8232 122.039 33.0232 122.505 32.0232C123.005 31.0232 123.255 29.9066 123.255 28.6732V17.4232C123.255 15.9232 122.905 14.7399 122.205 13.8732C121.539 13.0066 120.655 12.5732 119.555 12.5732C117.689 12.5732 116.172 13.6732 115.005 15.8732C113.872 18.0399 113.305 21.0066 113.305 24.7732C113.305 28.2066 113.739 30.8232 114.605 32.6232C115.505 34.3899 116.722 35.2732 118.255 35.2732Z" fill="white"/>
<path d="M102.673 6.87323C101.973 6.87323 101.373 6.62323 100.873 6.12323C100.406 5.62323 100.173 4.9899 100.173 4.22323C100.173 3.45656 100.406 2.8399 100.873 2.37323C101.373 1.87323 101.973 1.62323 102.673 1.62323C103.373 1.62323 103.956 1.87323 104.423 2.37323C104.889 2.8399 105.123 3.45656 105.123 4.22323C105.123 4.9899 104.889 5.62323 104.423 6.12323C103.956 6.62323 103.373 6.87323 102.673 6.87323ZM98.4727 37.1232C97.9727 37.1232 97.7227 36.9399 97.7227 36.5732C97.7227 36.2732 97.9393 36.0732 98.3727 35.9732L98.9727 35.8732C99.806 35.7399 100.339 35.5399 100.573 35.2732C100.806 34.9732 100.923 34.4732 100.923 33.7732V16.9732C100.923 16.3732 100.823 15.9732 100.623 15.7732C100.456 15.5399 100.139 15.3899 99.6727 15.3232L98.6227 15.1732C98.1893 15.1399 97.9727 14.9566 97.9727 14.6232C97.9727 14.3566 98.2393 14.1732 98.7727 14.0732C99.806 13.9066 100.639 13.6399 101.273 13.2732C101.906 12.9066 102.523 12.4566 103.123 11.9232C103.423 11.6232 103.673 11.4732 103.873 11.4732C104.173 11.4732 104.323 11.6732 104.323 12.0732V33.7732C104.323 34.4732 104.423 34.9732 104.623 35.2732C104.823 35.5732 105.206 35.7566 105.773 35.8232L107.023 35.9732C107.389 36.0399 107.573 36.2232 107.573 36.5232C107.573 36.9232 107.323 37.1232 106.823 37.1232H98.4727Z" fill="white"/>
<path d="M89.0292 37.5732C87.5625 37.5732 86.2292 37.0899 85.0292 36.1232C83.8625 35.1232 82.9292 33.7066 82.2292 31.8732C81.5292 30.0399 81.1792 27.8566 81.1792 25.3232C81.1792 22.4899 81.5959 20.0232 82.4292 17.9232C83.2959 15.8232 84.4625 14.2066 85.9292 13.0732C87.3959 11.9066 89.0292 11.3232 90.8292 11.3232C92.3625 11.3232 93.5625 11.6232 94.4292 12.2232C94.7625 12.4566 94.9292 12.8232 94.9292 13.3232L95.0292 19.4232C95.0292 19.9232 94.8292 20.1732 94.4292 20.1732C94.0625 20.1732 93.8292 19.9566 93.7292 19.5232C93.2625 17.6899 92.8125 16.2732 92.3792 15.2732C91.9459 14.2732 91.4959 13.5899 91.0292 13.2232C90.5625 12.8232 90.0459 12.6232 89.4792 12.6232C88.8125 12.6232 88.1125 13.0066 87.3792 13.7732C86.6792 14.5399 86.0792 15.7899 85.5792 17.5232C85.1125 19.2232 84.8792 21.4732 84.8792 24.2732C84.8792 27.8399 85.3292 30.5232 86.2292 32.3232C87.1625 34.1232 88.3625 35.0232 89.8292 35.0232C90.9959 35.0232 91.9625 34.5399 92.7292 33.5732C93.5292 32.6066 94.2125 30.8566 94.7792 28.3232C94.8792 27.9566 95.0792 27.7732 95.3792 27.7732C95.7792 27.7732 95.9292 28.1066 95.8292 28.7732C95.4625 31.1066 94.9459 32.9232 94.2792 34.2232C93.6459 35.4899 92.8792 36.3732 91.9792 36.8732C91.1125 37.3399 90.1292 37.5732 89.0292 37.5732Z" fill="white"/>
<path d="M65.8743 37.5732C65.0409 37.5732 64.2409 37.3899 63.4743 37.0232C62.7076 36.6566 62.0743 36.0732 61.5743 35.2732C61.0743 34.4732 60.8243 33.4066 60.8243 32.0732V14.6732C60.8243 14.0732 60.7243 13.6566 60.5243 13.4232C60.3576 13.1899 60.0409 13.0566 59.5743 13.0232L58.7243 12.9232C58.1576 12.8566 57.8743 12.6399 57.8743 12.2732C57.8743 11.8399 58.1909 11.6232 58.8243 11.6232H63.4743C63.9743 11.6232 64.2243 11.8732 64.2243 12.3732V31.0232C64.2243 32.5566 64.5076 33.6566 65.0743 34.3232C65.6743 34.9566 66.4909 35.2732 67.5243 35.2732C68.5576 35.2732 69.4743 34.9899 70.2743 34.4232C71.0743 33.8232 71.7076 33.0399 72.1743 32.0732C72.6743 31.0732 72.9243 29.9899 72.9243 28.8232V14.6732C72.9243 14.0732 72.8243 13.6566 72.6243 13.4232C72.4576 13.1899 72.1409 13.0566 71.6743 13.0232L70.8243 12.9232C70.2576 12.8566 69.9743 12.6399 69.9743 12.2732C69.9743 11.8399 70.2909 11.6232 70.9243 11.6232H75.5743C76.0743 11.6232 76.3243 11.8732 76.3243 12.3732V31.7732C76.3243 32.3732 76.4076 32.7899 76.5743 33.0232C76.7743 33.2232 77.1076 33.3566 77.5743 33.4232L78.6243 33.5732C79.0576 33.6066 79.2743 33.7732 79.2743 34.0732C79.2743 34.3732 79.0076 34.5732 78.4743 34.6732C77.4409 34.8066 76.6076 35.0732 75.9743 35.4732C75.3743 35.8732 74.8409 36.3566 74.3743 36.9232C74.0743 37.2232 73.8243 37.3732 73.6243 37.3732C73.3243 37.3732 73.1743 37.1732 73.1743 36.7732V34.4732C73.1743 34.2066 73.0743 34.0566 72.8743 34.0232C72.7076 33.9566 72.5243 34.0232 72.3243 34.2232C71.0909 35.4566 69.9909 36.3232 69.0243 36.8232C68.0909 37.3232 67.0409 37.5732 65.8743 37.5732Z" fill="white"/>
<path d="M47.3378 37.1232C46.9378 37.1232 46.7378 36.9399 46.7378 36.5732C46.7378 36.2399 46.9211 36.0399 47.2878 35.9732L47.9878 35.8732C48.6878 35.7732 49.2045 35.5732 49.5378 35.2732C49.8711 34.9732 50.0378 34.4732 50.0378 33.7732V5.12323C50.0378 4.52323 49.9378 4.10656 49.7378 3.87323C49.5711 3.63989 49.2545 3.50656 48.7878 3.47323L47.6378 3.32323C47.2711 3.25656 47.0878 3.05656 47.0878 2.72323C47.0878 2.3899 47.2711 2.1899 47.6378 2.12323C48.5711 1.92323 49.3711 1.68989 50.0378 1.42323C50.7045 1.15656 51.2545 0.889894 51.6878 0.623229C52.2211 0.289896 52.6211 0.12323 52.8878 0.12323C53.2545 0.12323 53.4378 0.389896 53.4378 0.923228V33.7732C53.4378 34.4732 53.5378 34.9732 53.7378 35.2732C53.9711 35.5399 54.4378 35.7232 55.1378 35.8232L56.2878 35.9732C56.6545 36.0399 56.8378 36.2399 56.8378 36.5732C56.8378 36.9399 56.6378 37.1232 56.2378 37.1232H47.3378Z" fill="white"/>
<path d="M40.9051 6.87323C40.2051 6.87323 39.6051 6.62323 39.1051 6.12323C38.6384 5.62323 38.4051 4.9899 38.4051 4.22323C38.4051 3.45656 38.6384 2.8399 39.1051 2.37323C39.6051 1.87323 40.2051 1.62323 40.9051 1.62323C41.6051 1.62323 42.1884 1.87323 42.6551 2.37323C43.1217 2.8399 43.3551 3.45656 43.3551 4.22323C43.3551 4.9899 43.1217 5.62323 42.6551 6.12323C42.1884 6.62323 41.6051 6.87323 40.9051 6.87323ZM36.7051 37.1232C36.2051 37.1232 35.9551 36.9399 35.9551 36.5732C35.9551 36.2732 36.1717 36.0732 36.6051 35.9732L37.2051 35.8732C38.0384 35.7399 38.5717 35.5399 38.8051 35.2732C39.0384 34.9732 39.1551 34.4732 39.1551 33.7732V16.9732C39.1551 16.3732 39.0551 15.9732 38.8551 15.7732C38.6884 15.5399 38.3717 15.3899 37.9051 15.3232L36.8551 15.1732C36.4217 15.1399 36.2051 14.9566 36.2051 14.6232C36.2051 14.3566 36.4717 14.1732 37.0051 14.0732C38.0384 13.9066 38.8717 13.6399 39.5051 13.2732C40.1384 12.9066 40.7551 12.4566 41.3551 11.9232C41.6551 11.6232 41.9051 11.4732 42.1051 11.4732C42.4051 11.4732 42.5551 11.6732 42.5551 12.0732V33.7732C42.5551 34.4732 42.6551 34.9732 42.8551 35.2732C43.0551 35.5732 43.4384 35.7566 44.0051 35.8232L45.2551 35.9732C45.6217 36.0399 45.8051 36.2232 45.8051 36.5232C45.8051 36.9232 45.5551 37.1232 45.0551 37.1232H36.7051Z" fill="white"/>
<path d="M1.5 37.1232C1 37.1232 0.75 36.9399 0.75 36.5732C0.75 36.2732 0.966667 36.0732 1.4 35.9732L2 35.8732C2.7 35.7399 3.15 35.5399 3.35 35.2732C3.58333 34.9732 3.7 34.4732 3.7 33.7732V16.9732C3.7 16.3732 3.6 15.9732 3.4 15.7732C3.23333 15.5399 2.91667 15.3899 2.45 15.3232L1.4 15.1732C0.966667 15.1399 0.75 14.9566 0.75 14.6232C0.75 14.3566 1.01667 14.1732 1.55 14.0732C2.58333 13.9066 3.36667 13.6399 3.9 13.2732C4.46667 12.9066 5.05 12.4566 5.65 11.9232C5.95 11.6232 6.2 11.4732 6.4 11.4732C6.7 11.4732 6.85 11.6732 6.85 12.0732V14.3232C6.85 14.5566 6.95 14.7399 7.15 14.8732C7.35 14.9732 7.56667 14.9066 7.8 14.6732C9.16667 13.3732 10.35 12.4899 11.35 12.0232C12.3833 11.5566 13.4167 11.3232 14.45 11.3232C15.4167 11.3232 16.2667 11.5899 17 12.1232C17.7667 12.6232 18.3333 13.3899 18.7 14.4232C18.8 14.6899 18.9667 14.8566 19.2 14.9232C19.4667 14.9566 19.7167 14.8566 19.95 14.6232C21.3167 13.3566 22.5 12.4899 23.5 12.0232C24.5 11.5566 25.5167 11.3232 26.55 11.3232C27.95 11.3232 29.0833 11.8566 29.95 12.9232C30.85 13.9566 31.3 15.4899 31.3 17.5232V33.7732C31.3 34.4732 31.4 34.9732 31.6 35.2732C31.8333 35.5399 32.3 35.7232 33 35.8232L34.1 35.9732C34.4667 36.0399 34.65 36.2399 34.65 36.5732C34.65 36.9399 34.45 37.1232 34.05 37.1232H25.5C25.0333 37.1232 24.8 36.9399 24.8 36.5732C24.8 36.2399 24.9833 36.0399 25.35 35.9732L26.05 35.8732C26.8167 35.7732 27.3167 35.5732 27.55 35.2732C27.7833 34.9732 27.9 34.4732 27.9 33.7732V18.0732C27.9 16.4399 27.6 15.2899 27 14.6232C26.4333 13.9566 25.65 13.6232 24.65 13.6232C23.65 13.6232 22.7333 13.9399 21.9 14.5732C21.1 15.1732 20.45 15.9899 19.95 17.0232C19.45 18.0232 19.2 19.1399 19.2 20.3732V33.7732C19.2 34.4732 19.3167 34.9732 19.55 35.2732C19.7833 35.5399 20.2667 35.7232 21 35.8232L22.1 35.9732C22.4667 36.0399 22.65 36.2399 22.65 36.5732C22.65 36.9399 22.45 37.1232 22.05 37.1232H13.55C13.0833 37.1232 12.85 36.9399 12.85 36.5732C12.85 36.2399 13.0333 36.0399 13.4 35.9732L14.1 35.8732C14.8 35.7732 15.25 35.5732 15.45 35.2732C15.6833 34.9732 15.8 34.4732 15.8 33.7732V18.0732C15.8 16.4399 15.5 15.2899 14.9 14.6232C14.3333 13.9566 13.55 13.6232 12.55 13.6232C11.55 13.6232 10.6333 13.9399 9.8 14.5732C9 15.1732 8.35 15.9899 7.85 17.0232C7.35 18.0232 7.1 19.1399 7.1 20.3732V33.7732C7.1 34.4732 7.2 34.9732 7.4 35.2732C7.63333 35.5732 8.1 35.7566 8.8 35.8232L10.15 35.9732C10.5167 36.0399 10.7 36.2232 10.7 36.5232C10.7 36.9232 10.45 37.1232 9.95 37.1232H1.5Z" fill="white"/>
</svg>
